
        <svg xmlns="http://www.w3.org/2000/svg" xmlns:xlink="http://www.w3.org/1999/xlink" version="1.1" width="3162.3083859332733" height="858.0523406249458" viewBox="0 0 3162.3083859332733 858.0523406249458">
			
			<g transform="scale(8.11541929666366) translate(10, 10)">
				<defs id="SvgjsDefs1001"/><g id="SvgjsG1007" featureKey="5TMTKC-0" transform="matrix(0.9641267922061669,0,0,0.9641267922061669,-6.539672024178727,-5.340298335130625)" fill="#fff"><path xmlns="http://www.w3.org/2000/svg" fill-rule="evenodd" clip-rule="evenodd" d="M46.58,5.539l-3.109,4.353c2.699,0.925-0.395,5.934-1.865,8.395  C27.835,41.32,13.727,75.184,6.783,80.78l4.042,13.68c4.56-17.929,39.59-20.313,78.972-12.747l3.42-5.907  C80.884,59.638,68.24,41.916,57.151,23.572c-1.07-1.525,0.414-3.731,0.622-5.596c-1.743,1.62-9.703,0.431-4.975,11.504  c8.395,14.406,17.722,28.189,27.049,41.351c-20.935-2.384-36.895-1.658-56.275,1.244c9.617-18.161,18.613-36.011,26.986-54.483  C52.355,11.417,49.552,8.052,46.58,5.539L46.58,5.539z"/></g><g id="SvgjsG1008" featureKey="7UBp9i-0" transform="matrix(2.076151478655225,0,0,2.076151478655225,97.39088685257974,16.002728837481413)" fill="#fff"><path d="M8.123827 20 l0 -12.270169 l-5.422139 0 l0 -1.688555 l12.72045 0 l0 1.688555 l-5.422139 0 l0 12.270169 l-1.876173 0 z M31.069418 20 l-3.80863 -5.159475 l-4.183865 0 l0 5.159475 l-1.857411 0 l0 -12.983114 q0 -0.318949 0.281426 -0.65666 q0.262664 -0.318949 0.806754 -0.318949 l5.684803 0 q0.938086 0 1.819887 0.337711 q0.863039 0.337711 1.5197 0.938086 q0.65666 0.619137 1.050657 1.444653 q0.375235 0.844278 0.375235 1.801126 q0 0.619137 -0.206379 1.294559 q-0.243902 0.694184 -0.637899 1.20075 q-0.412758 0.54409 -1.069418 0.97561 q-0.675422 0.450281 -1.538462 0.637899 l3.996248 5.32833 l-2.232645 0 z M23.076923 7.729831 l0 5.422139 l4.915572 0 q0.675422 0 1.219512 -0.225141 q0.506567 -0.187617 0.900563 -0.581614 q0.356473 -0.337711 0.54409 -0.825516 q0.187617 -0.43152 0.187617 -0.956848 q0 -0.506567 -0.187617 -0.994371 q-0.206379 -0.525328 -0.54409 -0.919325 q-0.375235 -0.412758 -0.900563 -0.65666 q-0.562852 -0.262664 -1.219512 -0.262664 l-4.915572 0 z M38.499062 6.041276 l1.857411 0 l0 13.958724 l-1.857411 0 l0 -13.958724 z M46.135085 19.02439 l0 -12.983114 l1.857411 0 l0 12.251407 l9.34334 0 l0 1.707317 l-10.11257 0 q-0.525328 0 -0.806754 -0.337711 q-0.281426 -0.318949 -0.281426 -0.637899 z M63.133208 19.02439 l0 -12.983114 l1.857411 0 l0 12.251407 l9.34334 0 l0 1.707317 l-10.11257 0 q-0.525328 0 -0.806754 -0.337711 q-0.281426 -0.318949 -0.281426 -0.637899 z M91.144465 13.864916 l-9.155722 0 l0 4.427767 l9.737336 0 l0 1.707317 l-10.506567 0 q-0.525328 0 -0.806754 -0.337711 q-0.281426 -0.318949 -0.281426 -0.637899 l0 -12.007505 q0 -0.318949 0.281426 -0.65666 q0.262664 -0.318949 0.806754 -0.318949 l10.506567 0 l0 1.688555 l-9.737336 0 l0 4.427767 l9.155722 0 l0 1.707317 z M109.962477 20 l0 -10.506567 l-5.103189 7.879925 l-5.103189 -7.879925 l0 10.506567 l-1.857411 0 l0 -13.26454 q0 -0.318949 0.281426 -0.637899 q0.262664 -0.318949 0.806754 -0.318949 q0.318949 0 0.562852 0.131332 q0.206379 0.131332 0.356473 0.337711 l4.953096 7.729831 l4.971857 -7.729831 q0.150094 -0.206379 0.375235 -0.337711 q0.206379 -0.131332 0.562852 -0.131332 q0.600375 0 0.844278 0.300188 q0.225141 0.318949 0.225141 0.65666 l0 13.26454 l-1.876173 0 z M118.91182 20 l-2.045028 0 l6.19137 -13.58349 q0.075047 -0.225141 0.356473 -0.43152 q0.262664 -0.206379 0.637899 -0.206379 q0.487805 0 0.694184 0.168856 q0.206379 0.206379 0.337711 0.469043 l6.060038 13.58349 l-2.045028 0 l-2.420263 -5.347092 l-5.309568 0 z M122.101313 13.076923 l3.883677 0 l-1.932458 -4.315197 z"/></g>
			</g>
		</svg>
	